<?xml version="1.0" encoding="UTF-8"?>
<svg version="1.1" viewBox="0 0 1600 1142" width="1280" height="1280" xmlns="http://www.w3.org/2000/svg">
<path transform="translate(774,26)" d="m0 0h50l29 2 37 5 26 5 36 9 36 12 32 13 29 14 19 10 20 12 24 16 19 14 16 13 11 9 15 14 12 11 9 9 7 8 12 13 9 11 12 15 13 18 12 18 11 18 9 16 12 23 11 24 12 31 10 31 9 36 6 32 4 34 2 32v35l-2 32-4 33-6 33-9 36-12 36-11 28-12 26-12 23-13 22-20 30-16 21-9 11-11 13-12 13-30 30-11 9-10 9-17 13-19 14-20 13-15 9-16 9-23 12-27 12-29 11-28 9-36 9-32 6-33 4-31 2h-41l-31-2-38-5-31-6-31-8-36-12-21-8-27-12-22-11-24-14-21-13-17-12-17-13-16-13-10-9-8-7-15-14-10-10-7-8-12-13-9-11-11-14-13-18-14-21-15-25-14-27-11-23-11-28-12-36-10-40-6-34-4-37-1-18v-47l2-30 4-31 5-28 10-40 12-36 11-28 14-30 14-26 13-21 10-15 10-14 13-17 11-13 9-11 7-7 7-8 21-21 8-7 10-9 11-9 18-14 20-14 20-13 26-15 17-9 33-15 35-13 29-9 38-9 36-6 29-3z" fill="#312C32"/>
<path transform="translate(792,143)" d="m0 0 4 1 7 10 12 19 32 50 11 17 14 22 11 17 48 75 11 17 14 22 11 17 14 22 11 17 32 50 11 17 14 22 16 25 14 22-7 12-11 17-42 66-12 19-70 110-12 19-112 176-13 20-2 3h-2l-7-11-11-18-15-24-16-26-12-19-16-26-30-48-16-26-12-19-16-26-12-19-16-26-30-48-16-26-12-19-13-21-15-24-12-19 1-5 4-7 5-8 1-3h2l2-5 1-3h2l1-5h2v-3h2l2-5 1-3h2l2-5 1-3h2v-3h2l2-5 1-3h2l1-5h2v-3h2l2-5 1-3h2l2-5 1-3h2l2-5 1-3h2l2-5 1-3 3-3 2-5 3-3 15-24 12-19 30-48 12-19 15-24 12-19 15-24 12-19 15-24 12-19 30-48 12-19z" fill="#060607"/>
<path transform="translate(799,176)" d="m0 0 2 3 11 36 7 25 12 39 7 25 9 29 7 25 9 29 7 25 9 29 6 21 10 33 6 21 13 44 5 17 11 36 3 12-3 2-33 11-13 5-43 15-19 7-20 7-8-1-46-16-3-2-14-4-20-7-8-3-28-10-9-3 1-8 8-26 10-33 7-25 12-39 7-26 6-18 5-18 7-24 7-22 7-25 5-17 7-23 9-31 7-23 9-31 7-23 8-29z" fill="#7308B0"/>
<path transform="translate(929,633)" d="m0 0 1 3-5 13-6 16-6 17-5 12-3 10-4 9-4 13-2 3-4 13-5 12-2 7-4 10-7 20-6 15-5 15-5 12-5 15-4 10-7 20-24 64-13 35-3 4-1 7h-2l-6-16-6-17-8-21-7-20-14-38-7-18-6-17-7-20-6-15-6-17-7-18-6-17-6-16-12-34-5-12-6-16-6-17-8-24 12 3 16 6 34 12 19 7 20 7 10 4 9 3 8 3 6-1 21-8 23-8 21-8 23-8 30-11z" fill="#C012ED"/>
<path transform="translate(781,199)" d="m0 0 1 2-5 15-5 18-9 29-7 24-7 23-6 20-6 21-4 12-2 8-7 24-7 22-7 25-9 29-6 21-7 23-12 40-4 12-4 16-6 18-6 21-42-14-11-4-28-10-18-6-8-3-4-2-1-5 10-15 9-15 15-24 16-26 12-19 15-24 26-42 12-19 26-42 12-19 15-24 13-21 12-19 11-18 10-16 12-19 7-11z" fill="#C012ED"/>
<path transform="translate(817,200)" d="m0 0 4 4 12 20 14 22 13 21 60 96 16 26 12 19 30 48 13 21 15 24 11 18 10 16 7 11 8 12 5 9 7 11-1 5-19 7-42 15-15 5-31 11h-4l-5-18-21-69-7-25-15-49-10-33-7-25-15-49-12-41-14-46-7-25-12-39z" fill="#C112EE"/>
<path transform="translate(669,635)" d="m0 0 12 3 16 6 34 12 19 7 20 7 10 4 9 3 10 4v305l-3-4-7-19-7-18-6-17-7-20-6-15-6-17-7-18-6-17-7-20-6-15-6-17-7-18-6-17-6-16-12-34-5-12-6-16-6-17-5-15z" fill="#E64FFE"/>
<path transform="translate(799,427)" d="m0 0 12 7 3 3h-2l3 5 49 49 10 6 11 11 8 16 6 17 4 6h6l4 9 3 11 14 46 3 12-3 2-33 11-13 5-43 15-19 7-17 6h-5l-1-32z" fill="#C112EE"/>
<path transform="translate(1045,591)" d="m0 0h2l-1 4-10 17h-2l-1 5h-2l-1 5h-2l-1 5h-2l-1 5h-2l-1 5h-2l-1 4-3 6h-2l-1 4-2 4h-2l-1 5-6 10h-2l-1 4-7 11-6 11-3 5h-2l-1 5-6 10h-2l-2 6-2 4h-2l-1 5h-2l-1 5h-2l-1 5h-2l-2 5-6 11-6 9-7 12-9 15-8 13-17 28-11 18-1 3h-2l-2 6-2 4h-2l-2 5-11 18-4 7-3 6h-2l-1 5h-2l-1 5h-2l-1 4-8 14h-2l-1 5-12 19-10 17-2 1 3-9 11-31 11-30 12-32 8-23 18-48 8-22 6-16 16-44 16-43 16-44 18-7 12-4 21-8 13-4 18-7 19-7z" fill="#C012ED"/>
<path transform="translate(552,593)" d="m0 0 10 3 24 8 36 13 20 7 12 5 3 3 14 37 6 17 7 18 4 13 5 12 18 49 7 19 11 29 7 21 5 12 16 43 4 13 5 12 5 15 5 12 6 16-1 2-12-19-6-11-6-10v-2h-2l-8-14-11-18-9-15-8-13-12-20-11-18-7-11-5-9-6-10-7-11v-3h-2l-9-15-5-9-4-6v-3h-2l-8-14-8-13-34-56-18-30-17-28-11-18z" fill="#BF12ED"/>
<path transform="translate(799,176)" d="m0 0 2 3 11 36 7 25 12 39 7 25 9 29 7 25 9 29 7 25 9 29 6 21 10 33 6 21 10 33-1 3-2-4h-5l-4-5-6-15-5-13-6-9-9-9-10-6-51-51-1-5-11-7-1-1-1-213-1-34z" fill="#7307B0"/>
<path transform="translate(817,200)" d="m0 0 4 4 12 20 14 22 13 21 15 24 8 13-1 8v9l-4 4 1 14v21l2 9 2 14 4 16 11 43 10 36 4 16 11 8 22 13 21 13 20 12 56 34 10 5 1-3 1 6-8 4-29 10-34 12-23 8-14 5h-4l-5-18-21-69-7-25-15-49-10-33-7-25-15-49-12-41-14-46-7-25-12-39z" fill="#8F0BC7"/>
<path transform="translate(797,181)" d="m0 0h1l1 33v213l-11 6-44 27-15 9-18 11h-2l2-11 6-18 5-18 7-24 7-22 7-25 5-17 7-23 9-31 7-23 9-31 7-23 8-29z" fill="#E54EFE"/>
<path transform="translate(841,665)" d="m0 0h3v49l-1 16v16l-2 32-2 44v23l1 3-12 36-14 41-12 35-1 14 2-1 10-27 3-6 1 2-13 35-3 4-1 7h-2l1-307 12-5z" fill="#7408B1"/>
<path transform="translate(670,63)" d="m0 0 2 2-27 9-13 7-3 3 1 6 10 1-3 2-29 11-25 11-30 15-27 16-15 10-17 12-18 14-14 12-20 18-16 16-7 8-13 15-13 17-13 18-14 22-12 21-6 10-4 9-8 16-6 14-5 12-6 16-5 15-7 25-3 12-7 38-3 17-4-2-6 1-3 11-3 18-2 38-2 1v-18l1-12-1-5 1-10 2-21 1-11 1-6 3-17 5-27 4-17 2-6 3-12 5-14 3-9 7-18 4-11 12-24 14-24 13-21 14-20 16-21 13-16 12-14 11-12 9-10 22-22 8-7 15-13 17-13 18-13 17-11 22-13 29-15 16-7 11-5 23-9 29-9z" fill="#706F70"/>
<path transform="translate(1324,592)" d="m0 0h1l1 46 1 8h6l3-7 2-12 2 4-4 30-2 10-8 36-8 27-7 21-6 14-6 16-14 29-9 17-10 17-14 22-12 16-8 11-13 16-11 13-7 8-11 12-8 8-7 8-12 11-14 13-11 9-16 13-17 12-15 10-28 17-27 14-21 10-13 5h-4v2l-10 4-3 3v-2l-13 4-6 1 2-2 12-6v-5l-9-1-14 2-21 5h-5l3-2 21-6 33-11 29-12 29-14 17-9 22-13 21-14 14-10 12-9 16-13 11-9 15-14 13-12 7-8 10-11 11-14 13-18 10-15 9-15 12-21 10-19 14-31 11-29 10-31 5-18 6-27 2-12 3-22 2-12 1-19 1-9z" fill="#6F6E6F"/>
<path transform="translate(669,635)" d="m0 0 12 3 16 6 34 12 9 3-3 1-1 12-1 25-1 7-2 47v16l3 15 13 41 11 32 9 26 16 43 13 34 1 2 1 12v14l-3-4-7-19-7-18-6-17-7-20-6-15-6-17-7-18-6-17-7-20-6-15-6-17-7-18-6-17-6-16-12-34-5-12-6-16-6-17-5-15z" fill="#BF12ED"/>
<path transform="translate(701,547)" d="m0 0 5 1 6 12 4 2 6 12 8 8 3 9 9 7 6 11 4 5 5 5v2l3 1 7 8 5 6 3 7 21 21 3 2v5l-8-1-43-15-3-2-14-4-20-7-8-3-28-10-9-3 1-8 8-26 3-4 4 1 4-9 10-26 3-6z" fill="#8F0BC7"/>
<path transform="translate(796,427)" d="m0 0h3v216h-1l-1-68-5-2-6-7-3-7-8-6-6-11-5-5-5-8-3-4-3-7-6-8-6-13-1-3-3-3-6-13-2-6v-4l22-13 19-12 20-12z" fill="#510594"/>
<path transform="translate(824,671)" d="m0 0 3 1h-2v28l-1 24-2 39-3 25-2 30-4 37-1 20v43l1 4-12 35h-1l-1-165v-111l12-5z" fill="#510594"/>
<path transform="translate(552,593)" d="m0 0 10 3 24 8 36 13 8 3-1 6-1 67 6 17 8 16 11 21-1 7-3 1-8-14-8-13-34-56-18-30-17-28-11-18z" fill="#7207B0"/>
<path transform="translate(817,200)" d="m0 0 4 4 12 20 14 22 13 21 15 24 8 13-1 8v9l-4 4 1 14v21l2 9 2 14 4 16 11 43 2 7v16l-2 2-2-1-12-39-7-25-15-49-12-41-14-46-7-25-12-39z" fill="#7207AF"/>
<path transform="translate(648,411)" d="m0 0 3 4 1 4-14 26-8 15-4 15 1 55-10 7-22 13-16 10-23 14-12 7 1-4 12-19 12-20 14-22 16-26 12-19 13-21 15-24z" fill="#7307B0"/>
<path transform="translate(1324,592)" d="m0 0h1l1 46 1 8h6l3-7 2-12 2 4-4 30-2 10-8 36-8 27-7 21-6 14-6 16-14 29-9 17-6 10-5 5-8 11h-2v2l-5-1 1-5 6-15 7-15 4-11 14-31 11-29 10-31 5-18 6-27 2-12 3-22 2-12 1-19 1-9z" fill="#6F6F6F"/>
<path transform="translate(670,63)" d="m0 0 2 2-27 9-13 7-3 3 1 6 10 1-3 2-29 11-25 11-30 15-27 16-15 10-17 12-17 13-8 4-13 8-6 1 1-6 9-10 13-13 7-6 4-5 18-13 24-16 22-13 29-15 16-7 11-5 23-9 29-9z" fill="#6F6F6F"/>
<path transform="translate(1045,591)" d="m0 0h2l-1 4-10 17h-2l-1 5h-2l-1 5h-2l-1 5h-2l-1 5h-2l-1 5h-2l-1 4-3 6h-2l-1 4-2 4h-2l-1 5-6 10h-2l-1 4-7 11-6 11-3 5h-2l-1 5-6 10h-2l-2 6-2 4h-2l-1 5h-2l-1 5h-2l-1 5h-2l-2 5-6 11-6 9-7 12-9 15-8 13-17 28-11 18-1 3h-2l-2 6-2 4h-2l-2 5-11 18-4 7-3 6h-2l-1 5h-2l-1 5h-2l-1 4-2 4h-3l-2 4-2 1 3-9 11-24 16-32 14-24 34-56 13-21 15-23 11-17 15-24 51-84 9-15z" fill="#DF49FA"/>
<path transform="translate(799,176)" d="m0 0 2 3 11 36 7 25 5 16-2 10-1 7h-2l-6-16-4-13-5-13-3-1v77l8 28 2 8 5 16 3 9 3 15 4 15 1 9 1 1 1 13 1 2 2 12 1 2v9l-6-2-11-7-7-3-10-7-1-213-1-34z" fill="#510594"/>
<path transform="translate(781,199)" d="m0 0 1 2-5 15-5 18-9 29-7 24-7 23-6 20-6 21-4 12-2 8-7 24-7 22-7 25-9 29-1 5-2 1-4 12-8 6h-2l2-10 19-65 17-58 4-14-1-5-1-4v-22l4-13 13-25 8-13h2l2-4 8-18 8-19-4 2 1-5 9-14z" fill="#E24CFC"/>
<path transform="translate(692,575)" d="m0 0 5 2 7 8 6 9 5 6 3 5 6 7 6 8 1 3h2l8 10 6 8 12 12 1 4-9-1-6-3-14-4-20-7-8-3-28-10-9-3 1-8 5-16h3l4 1 8-21 4-6z" fill="#BF12ED"/>
<path transform="translate(791,139)" d="m0 0h3l-2 6-14 22-12 19-30 48-12 19-15 24-12 19-15 24-12 19-15 24-12 19-30 48-24 38h-2l-1 5-2 3h-2l-1 5-2 3h-2l-1 4-2 4h-2l-1 5-2 3h-2l-1 4-2 4h-2v3h-2l-1 5h-2l-1 4-2 4h-2v3h-2l-1 5-2 3h-2l-1 4-2 4h-2v3h-2l-1 5h-2l-1 4-2 4h-2l-1 5-8 12-5-1 1-6 8-14 11-17 14-22 15-24 14-22 11-17 12-19 9-14 13-20 28-44 12-19 42-66 15-24 14-22 15-24 22-34 16-25z" fill="#706E70"/>
<path transform="translate(797,181)" d="m0 0h1v27l-23 77-12 41-13 47-10 37-7 29-2 10v17l2 1-16 9-6 4h-2l2-11 6-18 5-18 7-24 7-22 7-25 5-17 7-23 9-31 7-23 9-31 7-23 8-29z" fill="#BD12EB"/>
<path transform="translate(1252,302)" d="m0 0 7 6 3 2 7-1 1-4v-2h2l8 16 3 4 4 10 5 10 5 12v3h3l3 12h2l5 17 1 6h2l3 7 3 11v5l2 1 1 9v5l-4 4-5-1-5-5-5-11-3-8-2 1-4-14-2-4-2-6-2-9h-2l-2-7-3-7-4-8-3-7-4-8-9-19-3-8-6-10z" fill="#706F70"/>
<path transform="translate(994,486)" d="m0 0 4 2 9 15 20 32 7 11 8 12 5 9 5 7v5l-5-1-25-15-28-17-8-5-1-3 1-37 2-3 4 2 3 1-2-13z" fill="#E34CFC"/>
<path transform="translate(1266,816)" d="m0 0 1 3-8 18-5 11-3 7v3l4 1v-2l5-5 8-11 1 2-15 24-13 18-12 16-11 13-9 11-18 20-9 9-7 8-12 11-14 13-7 6-2-1 10-11 1-5-5 1-18 11-21 14-2-1 14-10 12-9 16-13 11-9 15-14 13-12 7-8 10-11 11-14 13-18 10-15 9-15 12-21z" fill="#564B56"/>
<path transform="translate(343,329)" d="m0 0 5 2 2 2-1 5-3 4-5 12-5 10-6 14-5 12-6 16-5 15-7 25-4 15-2 1v-2l-7 1-3 3-4 9-2 9h-1l1-12 7-30 9-31 10-27 11-24 8-15 8-11z" fill="#A88DA6"/>
<path transform="translate(929,633)" d="m0 0 1 3-5 13-6 16-6 17-5 12-3 10-4 9-4 13-2 3-4 13-5 12-2 7-4 10-7 20-6 15-5 10-8 21-3 6-4-5 5-17 22-65 18-50 17-46 8-21 1-2z" fill="#E14AFB"/>
<path transform="translate(937,551)" d="m0 0 5 3 11 9 9 9 8 7 5 4 8 7 8 8 7 3-1 2-37 13-14 5h-4l-1-4v-7l6 2-9-33-4-20v-6z" fill="#C012ED"/>
<path transform="translate(710,83)" d="m0 0h6l-4 2-36 8-27 8-21 7-34 14-32 16-24 14-24 16-18 13-11 9-13 11-12 11-10 9-12 12-7 8-11 12-22 28-14 20-10 16-10 17-12 23-11 23-11 28-11 34-2 4 1-9 9-30 11-29 9-20 8-16 11-21 13-21 13-19 16-21 11-13 18-20 22-22 8-7 14-12 20-15 18-13 23-14 16-9 23-12 30-13 25-9 31-9 31-7z" fill="#656165"/>
<path transform="translate(903,63)" d="m0 0h15l28 6 33 10 27 11 11 5 12 5 1 2-10-3-13-4-7 1-1 1 1 7 5 6-5-1-29-11-30-10-33-9-6-4-3-3v-6l1-2z" fill="#706F70"/>
<path transform="translate(1341,627)" d="m0 0h1l-1 13-5 32-8 36-9 31-9 26-13 31-14 29-13 23-13 21-13 19-16 21-9 11-11 13-12 13-30 30-11 9-10 9-17 13-19 14-20 13-15 9-16 9-23 12-27 12-21 8v-3l6-3h4v-2l17-6 25-12 25-13 23-14 18-12 11-8 16-12 28-24 11-11 8-7 9-10 9-9 7-8 12-14 22-28 12-17 10-15 12-20 10-18 13-26 7-18 5-11 8-22 10-34 5-21 4-23 2-9 3-22z" fill="#353036"/>
<path transform="translate(814,436)" d="m0 0 5 2 12 7v2l5 2 29 17 10 2 3 5 8 23 5 6 6 1 14 46-1 3-2-4h-5l-4-5-6-15-5-13-6-9-9-9-10-6-51-51v-3z" fill="#8E0BC6"/>
<path transform="translate(574,1047)" d="m0 0 9 3 8 4 13 5 29 11 31 10 27 9 5 3 1 7-5 3-17-2-26-6-29-9-27-10-10-5 3-1h8l1-1v-6l-7-6-14-8z" fill="#6F6F6F"/>
<path transform="translate(479,158)" d="m0 0 2 1-17 16-10 10-3 5-1 4 9-4 12-7 5-2-5 5-10 9-8 7-12 11-15 15-7 8-13 15-13 17-13 18-1-2 1-9-5 1-7 6-13 17v-3l8-12 14-19 11-14 9-11 12-14 11-12 9-10 22-22 8-7 15-13z" fill="#564B56"/>
<path transform="translate(319,754)" d="m0 0 7 2 11 24 12 25 14 25 11 18v2l-8 1-1 1 1 9 4 8v2h-2l-10-16-15-25-15-29-10-25-3-10v-9l1-2z" fill="#6F6F6F"/>
<path transform="translate(610,614)" d="m0 0 6 1 14 5-1 6-1 67 6 17 8 16 11 21-1 7-3 1-8-14-1-5h2l-1-7-14-26-12-24-5-15z" fill="#8F0BC7"/>
<path transform="translate(792,143)" d="m0 0 3 2-2 5-7 10-13 21-16 25-12 19-15 24-36 57-13 21-12 19-14 22-12 19-15 24-12 19-15 24-14 22-15 24-36 57-11 18-4 1 2-4 6-10 1-3h2l2-5 1-3h2l1-5h2v-3h2l2-5 1-3h2l2-5 1-3h2v-3h2l2-5 1-3h2l1-5h2v-3h2l2-5 1-3h2l2-5 1-3h2l2-5 1-3h2l2-5 1-3 3-3 2-5 3-3 15-24 12-19 30-48 12-19 15-24 12-19 15-24 12-19 15-24 12-19 30-48 12-19z" fill="#322D33"/>
<path transform="translate(861,272)" d="m0 0 3 1 14 23 5 9-1 7v9l-4 4 1 14v21l2 9 2 14 11 44-1 4-12-42-9-34-13-49-2-7v-10l3-3v-12z" fill="#8F0BC7"/>
<path transform="translate(954,522)" d="m0 0 5 2 27 16 56 34 10 5 1-3 1 6-8 4-17 6-2-1-6-7-36-36-8-1-20-20z" fill="#7408B1"/>
<path transform="translate(900,453)" d="m0 0 2 4 9 32 2 6 5 4 5 23 9 35 5 19v3h2l8 30v3l-6-2-1 4-3-11-21-69-7-25-12-39v-5h2z" fill="#7207AF"/>
<path transform="translate(841,665)" d="m0 0h3v49l-1 16v16l-2 32-2 44v23l1 3-7 21-3-3 2-50 1-10 1-26 2-37 1-18 1-35v-24z" fill="#8F0BC7"/>
<path transform="translate(1252,302)" d="m0 0 7 6 3 2 7-1 1-4v-2h2l8 16 3 4 4 10 5 10 8 20 1 4v7l-2 2h-6l-7-9-14-27-14-26-6-10z" fill="#A88DA6"/>
<path transform="translate(639,439)" d="m0 0 1 2-10 19-4 15 1 55-10 7-10 5-1-1v-25l3-19 4-10 8-16 13-24z" fill="#900CC8"/>
<path transform="translate(612,473)" d="m0 0h2l1 5-9 16-10 17-15 27-8 15-3 7-1 6-21 13-4 2 1-4 12-19 12-20 14-22 16-26 9-14z" fill="#510594"/>
<path transform="translate(376,274)" d="m0 0 5 1-1 9-3 7-11 17-12 21-4 5-5-4-6 2-8 11-12 23h-1v-6l8-16 13-23 14-22 5-5 11-14z" fill="#6E6D6E"/>
<path transform="translate(552,593)" d="m0 0 10 3 9 3 4 12 10 19 14 26 13 23 5 9v5h-3l-6-8-3-3-19-32-8-13-17-28-8-13z" fill="#510593"/>
<path transform="translate(825,225)" d="m0 0h5l8 16 6 16 1 9 15 53 7 25v6l-3 6-2-3-12-41-14-46-7-25-4-13z" fill="#510594"/>
<path transform="translate(741,216)" d="m0 0 1 2-12 19-15 24-24 38-14 22-12 19-16 25-15 24-14 22-12 19-28 44-24 38-14 22-15 24-8 13-1 3 3 1-4 1-1-5 6-11 28-44 15-24 14-22 11-17 12-19 9-14 13-20 28-44 12-19 42-66 15-24 14-22z" fill="#564B56"/>
<path transform="translate(1224,261)" d="m0 0 5 5 8 9 5 3h8l-1-7-1-4 5 5 8 12 7 12 3 5v7l-4 3-7-1-6-5-1-2h-3l-9-15-10-15-7-10z" fill="#6E6D6E"/>
<path transform="translate(719,474)" d="m0 0h2l-2 8-7 18-12 36-4 10-5-1-2 2 2-9 13-43 4-15z" fill="#510594"/>
<path transform="translate(681,497)" d="m0 0 1 4-12 38-2 1v-2h-2l-7-11-7-7-1-4 19-12z" fill="#900CC8"/>
<path transform="translate(1285,370)" d="m0 0 3 4 10 24 4 6v2l5 2 6-1-1-14 3 3 4 15v5l2 1 1 9v5l-4 4-5-1-5-5-5-11-3-8-2 1-4-14-2-4-2-6-2-9h-2l-2-7z" fill="#554A55"/>
<path transform="translate(586,468)" d="m0 0 1 3-3 5h-2l-1 5-2 3h-2l-1 4-2 4h-2l-1 5-2 3h-2l-1 4-2 4h-2v3h-2l-1 5h-2l-1 4-2 4h-2v3h-2l-1 5-2 3h-2l-1 4-2 4h-2v3h-2l-1 5h-2l-1 4-2 4h-2l-1 5-7 10-2 1-2-1 1-5 12-19 15-24 14-22 12-19 5-6 5-5z" fill="#717171"/>
<path transform="translate(751,892)" d="m0 0h2l4 10 4 13 5 12 5 15 5 12 6 16-1 2-12-19-6-11-6-10-1-4 1-1-5-13-2-7 1-5z" fill="#DF49FA"/>
<path transform="translate(990,1065)" d="m0 0h12l1 1v5l-5 4-11 5-2 5-1-2-13 4-6 1 2-2 12-6v-5l-9-1-14 2-21 5h-5l3-2 21-6 21-7 6 1z" fill="#554B55"/>
<path transform="translate(670,63)" d="m0 0 2 2-27 9-13 7-3 3 1 6 10 1-3 2-16 6-10-1-3-2v-5l7-6 7-4h2l1-4 18-6 17-5z" fill="#564B56"/>
<path transform="translate(845,893)" d="m0 0 2 4 1 9-7 18-1 6 1 4-12 19-10 17-2 1 3-9 11-31 11-30z" fill="#6F07AD"/>
<path transform="translate(927,778)" d="m0 0 3 2-2 6-15 25-17 28-11 18-3 2v-2h-2l2-6 10-16 13-22 14-23z" fill="#FEFEFE"/>
<path transform="translate(1324,592)" d="m0 0h1l1 46 1 8h6l3-7 2-12 2 4-4 30-2-1-3 8-2 2-5-1-2-7v-17l1-29-1-5 1-9z" fill="#564B56"/>
<path transform="translate(791,139)" d="m0 0h3l-2 6-14 22-12 19-15 24-4 1-5 5 2-5 11-18 26-40 8-12z" fill="#656165"/>
<path transform="translate(1341,627)" d="m0 0h1l-1 13-5 32-8 36-9 31-9 26-5 12h-3l1-4 6-16 7-20 8-26 6-25 4-23 2-9 3-22z" fill="#3A353B"/>
<path transform="translate(1262,286)" d="m0 0 4 2 12 21 14 27 13 29 6 17v4l1 7-2-3-5-15v-5h-2l-3-9v-3h-3l-7-18-7-13-2-5-10-19-9-16z" fill="#3D373D"/>
<path transform="translate(799,792)" d="m0 0h1l1 164 1 4-1 14 2-1 10-27 3-6 1 2-13 35-3 4-1 7h-2z" fill="#7408B1"/>
<path transform="translate(360,337)" d="m0 0 1 2-16 32-12 29-12 35-3 11h-1l1-9 9-30 11-29 9-20 8-16 3-4z" fill="#564B56"/>
<path transform="translate(710,83)" d="m0 0h6l-4 2-36 8-27 8-21 7-22 9-3-1 7-3-1-2 27-10 31-9 31-7z" fill="#564B56"/>
<path transform="translate(574,1047)" d="m0 0 9 3 12 6 5 4 8 6 2 3v5l-2 2h-7l-10-2-8-4 3-1h8l1-1v-6l-7-6-14-8z" fill="#564B56"/>
<path transform="translate(989,89)" d="m0 0h8l19 5 14 7-2 1-16-6-10-1-3 2 1 7 5 6-5-1-8-3-6-8v-6z" fill="#564B56"/>
<path transform="translate(586,468)" d="m0 0 1 3-3 5h-2l-1 5-2 3h-2l-1 4-2 4h-2l-1 5-2 3h-2l-1 4-2 4h-2v3h-2l-1 5h-2l-1 4-2 4h-2v3h-2l-1 5-2 3h-2l-1 4-2 4h-2v3h-2l-1 5h-2l-1 4-2 4h-2v3h-2l1-5 15-24 12-19 16-25 7-11z" fill="#A0899F"/>
<path transform="translate(289,493)" d="m0 0 6 1 1 9-2 10-4-2-6 1-3 11-2 4 1-13 4-15 3-5z" fill="#564B56"/>
<path transform="translate(938,579)" d="m0 0 2 3 7 27v3l-6-2-1 4-3-11-5-16v-7l6 4z" fill="#8E0BC6"/>
<path transform="translate(900,453)" d="m0 0 2 4 9 32v5l-5-2-3-2-6-20v-5h2z" fill="#8B0BC4"/>
<path transform="translate(903,63)" d="m0 0h15l11 2v1l-16 1v8l5 6-10-2-6-4-3-3v-6l1-2z" fill="#564B56"/>
<path transform="translate(359,838)" d="m0 0h9l6 10v2l-8 1-1 1 1 9 4 8v2h-2l-4-8-7-15-1-5z" fill="#564B56"/>
<path transform="translate(317,363)" d="m0 0h1l-1 8-9 21-11 33-8 31-5 26-2-1 2-12 3-16 4-17 2-6 3-12 5-14 3-9 7-18 4-11z" fill="#635E63"/>
<path transform="translate(391,288)" d="m0 0v3l-16 24-13 22-4 3 1-6 10-18 12-19 5-5z" fill="#645F64"/>
<path transform="translate(671,1083)" d="m0 0 9 2 13 5 4 4v5l-5 3-17-2v-1l7-2 1-4-2-4-10-5z" fill="#564B56"/>
<path transform="translate(607,112)" d="m0 0h5l-2 2-7 2v2l-29 14-15 8-2-1 3-1 1-5 31-15z" fill="#635D63"/>
<path transform="translate(1058,1048)" d="m0 0m-1 1m-2 1h2l-1 3-21 11-27 12-21 8v-3l6-3h4v-2l17-6 25-12z" fill="#39353A"/>
<path transform="translate(1248,267)" d="m0 0 5 5 3 7 1 2v6l-2 2h-7l-8-7-6-7 1-2 7 5h8l-1-7z" fill="#564B56"/>
<path transform="translate(319,754)" d="m0 0 7 2 4 9v2h-7l-3 3 1 12-2-3-4-13v-9l1-2z" fill="#564B56"/>
<path transform="translate(648,411)" d="m0 0 3 4 1 4-10 18-2-3v-3h-2l1-5z" fill="#8B0BC4"/>
<path transform="translate(1341,627)" d="m0 0h1l-1 13-5 32-4 19-2-1 1-11 3-16 2-9 3-22z" fill="#3E383F"/>
<path transform="translate(643,732)" d="m0 0h2l8 15-1 7-3 1-8-14-1-5h2z" fill="#8B0BC4"/>
<path transform="translate(925,790)" d="m0 0 1 3-8 13-17 28-11 18-2 3-1-3 34-56z" fill="#DF43FB"/>
<path transform="translate(768,935)" d="m0 0 2 3 12 32-1 2-12-19-2-5z" fill="#AB10DC"/>
<path transform="translate(1291,342)" d="m0 0h2l2 5 4 4 11 27 1 4v4l1 7-2-3-5-15v-5h-2l-3-9v-3h-3z" fill="#473F47"/>
<path transform="translate(678,588)" d="m0 0 6 1-2 9-3 6-5-2-1-4 4-9z" fill="#8D0BC5"/>
<path transform="translate(317,363)" d="m0 0h1l-1 8-9 21-6 17h-2l2-10 9-22 4-11z" fill="#625C62"/>
<path transform="translate(277,527)" d="m0 0h2l-1 14-2 38-2 1v-18l1-12-1-5 1-10 1-7z" fill="#574C57"/>
<path transform="translate(816,940)" d="m0 0 1 2-13 35-3 4-1 7h-2l1-16h2v2l2-1 10-27z" fill="#5F069F"/>
<path transform="translate(670,63)" d="m0 0 2 2-24 8-9 2-12 5-3-1 3-3 29-9z" fill="#615B61"/>
<path transform="translate(975,1066)" d="m0 0 3 1-1 2-18 5h-3v2l-21 5h-5l3-2 21-6z" fill="#6A676A"/>
<path transform="translate(1309,382)" d="m0 0h2l6 16 7 22v2l-3-1-5-16-2-9-3-7z" fill="#383439"/>
<path transform="translate(586,468)" d="m0 0 1 3-3 5h-2l-1 5-2 3h-2l-1 4-2 4h-2l-1 5-2 3h-2l-1 3-1-3 12-19z" fill="#9E889D"/>
<path transform="translate(845,893)" d="m0 0 2 4 1 9-6 15-1-3 1-3v-14z" fill="#8A0BC3"/>
<path transform="translate(585,124)" d="m0 0 3 1-26 13-5 2 1-2h2l1-5 8-4 4 1z" fill="#5F575F"/>
<path transform="translate(813,921)" d="m0 0 1 4-11 32-2-1 3-11 8-23z" fill="#7C09B7"/>
<path transform="translate(1261,320)" d="m0 0 3 3 14 27 2 9-3-3-3-7-4-8-9-19z" fill="#645F64"/>
<path transform="translate(367,320)" d="m0 0h4l-2 5-7 12-4 3 1-6z" fill="#605A60"/>
<path transform="translate(560,134)" d="m0 0 2 1-5 6-12 7-2-1 2-5z" fill="#645F64"/>
<path transform="translate(833,943)" d="m0 0v3l-14 24-2 1 6-18 2 1 7-10z" fill="#510594"/>
<path transform="translate(565,502)" d="m0 0 1 2-2 4h-2v3h-2l-1 5h-2l-1 4-2 4h-2v3h-3l2-5 11-17z" fill="#A18AA0"/>
<path transform="translate(1011,1071)" d="m0 0m-2 1 4 2-26 10v-3l6-3h4v-2z" fill="#3F393F"/>
<path transform="translate(817,200)" d="m0 0 4 4 6 10-2 7-2 1-6-20z" fill="#510594"/>
<path transform="translate(391,288)" d="m0 0v3l-9 13h-3l-2 1 2-5 5-7z" fill="#625C62"/>
<path transform="translate(840,921)" d="m0 0 1 3-1 6 1 4-4 5h-4l1-4 5-12z" fill="#8A0BC3"/>
<path transform="translate(1330,690)" d="m0 0h1l-1 10-4 14h-2l2-11 3-12z" fill="#383439"/>
<path transform="translate(843,919)" d="m0 0 1 4 3-4 2 1-5 9h-2v3h-2l-1-4 3-8z" fill="#B010E1"/>
<path transform="translate(902,828)" d="m0 0 1 3-13 21-2 3-1-3 14-23z" fill="#D53DF5"/>
<path transform="translate(1284,325)" d="m0 0 3 1 10 21h-3l-1-5h-2l-5-12z" fill="#3D373D"/>
<path transform="translate(277,527)" d="m0 0h2l-1 14-2 7-2-1 1-12 1-7z" fill="#635E63"/>
<path transform="translate(586,121)" d="m0 0 3 1-1 2-15 7-2-1v-2z" fill="#676367"/>
<path transform="translate(1042,586)" d="m0 0h6l-1 4h-2v2l-4 2-3-1 2-6z" fill="#312935"/>
<path transform="translate(1278,316)" d="m0 0 5 2 3 7v3l4 8-1 3-6-12-2-5z" fill="#544F54"/>
<path transform="translate(1324,714)" d="m0 0h2l-3 12-2 7-2-2 1-6 3-10z" fill="#403A41"/>
<path transform="translate(952,1074)" d="m0 0 4 2-21 5h-5l3-2z" fill="#564B56"/>
<path transform="translate(681,497)" d="m0 0 1 4-3 7-3-2-1-5z" fill="#7808B4"/>
<path transform="translate(798,972)" d="m0 0h1v14l-3-4-2-8z" fill="#D032F3"/>
<path transform="translate(1285,370)" d="m0 0 3 4 5 12-1 3-3-4-1-7h-2l-2-7z" fill="#564B56"/>
<path transform="translate(1324,592)" d="m0 0h1v22l-2 1-1-4 1-9z" fill="#5F585F"/>
<path transform="translate(885,468)" d="m0 0 2 1 2 6v6l-4-3z" fill="#830ABD"/>
<path transform="translate(1271,342)" d="m0 0h3l4 8 2 9-3-3-3-7-3-5z" fill="#5D565D"/>
<path transform="translate(1291,342)" d="m0 0h2l2 5 4 4-1 7-2-3z" fill="#5E5A5E"/>
<path transform="translate(574,1047)" d="m0 0 9 3 7 3-1 2-5-1-10-6z" fill="#584E58"/>
<path transform="translate(1309,382)" d="m0 0h2l6 16-2 1-4-10z" fill="#3A353B"/>
<path transform="translate(586,468)" d="m0 0 1 3-3 5h-2l-1 5h-3l2-4z" fill="#958394"/>
<path transform="translate(824,212)" d="m0 0h2l1 4-3 6-2-4v-5z" fill="#59059A"/>
<path transform="translate(997,1077)" d="m0 0m-4 1h4v2l-11 4 2-4z" fill="#373238"/>
<path transform="translate(1042,582)" d="m0 0 7 1-3 3-7 1z" fill="#B711E6"/>
<path transform="translate(925,790)" d="m0 0 1 3-7 12-1-4z" fill="#D038F2"/>
<path transform="translate(781,199)" d="m0 0 1 2-3 10-2-2-2 1 2-5z" fill="#B329DD"/>
<path transform="translate(393,283)" d="m0 0 1 4-9 6 2-5z" fill="#676267"/>
<path transform="translate(800,665)" d="m0 0 5 2v4h-5z" fill="#DE48F9"/>
<path transform="translate(304,395)" d="m0 0h1l-1 8-2 6h-2l2-10z" fill="#5F585F"/>
</svg>
